<?xml version="1.0" encoding="utf-8"?>
<svg version="1.1" xmlns:xlink="http://www.w3.org/1999/xlink" width="129px" height="119px" xmlns="http://www.w3.org/2000/svg">
  <defs>
    <filter x="395px" y="109px" width="129px" height="119px" filterUnits="userSpaceOnUse" id="filter23">
      <feOffset dx="1" dy="1" in="SourceAlpha" result="shadowOffsetInner" />
      <feGaussianBlur stdDeviation="2.5" in="shadowOffsetInner" result="shadowGaussian" />
      <feComposite in2="shadowGaussian" operator="atop" in="SourceAlpha" result="shadowComposite" />
      <feColorMatrix type="matrix" values="0 0 0 0 0  0 0 0 0 0  0 0 0 0 0  0 0 0 0.698039215686274 0  " in="shadowComposite" />
    </filter>
    <g id="widget24">
      <path d="M 458.5 113  C 491.82 113  518 136.98  518 167.5  C 518 198.02  491.82 222  458.5 222  C 425.18 222  399 198.02  399 167.5  C 399 136.98  425.18 113  458.5 113  Z " fill-rule="nonzero" fill="#ec808d" stroke="none" />
      <path d="M 458.5 113.5  C 491.54 113.5  517.5 137.26  517.5 167.5  C 517.5 197.74  491.54 221.5  458.5 221.5  C 425.46 221.5  399.5 197.74  399.5 167.5  C 399.5 137.26  425.46 113.5  458.5 113.5  Z " stroke-width="1" stroke="#ffffff" fill="none" />
    </g>
  </defs>
  <g transform="matrix(1 0 0 1 -395 -109 )">
    <use xlink:href="#widget24" filter="url(#filter23)" />
    <use xlink:href="#widget24" />
  </g>
</svg>