<?xml version="1.0" encoding="utf-8"?>
<svg version="1.1" xmlns:xlink="http://www.w3.org/1999/xlink" width="129px" height="119px" xmlns="http://www.w3.org/2000/svg">
  <defs>
    <filter x="268px" y="194px" width="129px" height="119px" filterUnits="userSpaceOnUse" id="filter25">
      <feOffset dx="1" dy="1" in="SourceAlpha" result="shadowOffsetInner" />
      <feGaussianBlur stdDeviation="2.5" in="shadowOffsetInner" result="shadowGaussian" />
      <feComposite in2="shadowGaussian" operator="atop" in="SourceAlpha" result="shadowComposite" />
      <feColorMatrix type="matrix" values="0 0 0 0 0  0 0 0 0 0  0 0 0 0 0  0 0 0 0.698039215686274 0  " in="shadowComposite" />
    </filter>
    <g id="widget26">
      <path d="M 331.5 198  C 364.82 198  391 221.98  391 252.5  C 391 283.02  364.82 307  331.5 307  C 298.18 307  272 283.02  272 252.5  C 272 221.98  298.18 198  331.5 198  Z " fill-rule="nonzero" fill="#facd91" stroke="none" />
      <path d="M 331.5 198.5  C 364.54 198.5  390.5 222.26  390.5 252.5  C 390.5 282.74  364.54 306.5  331.5 306.5  C 298.46 306.5  272.5 282.74  272.5 252.5  C 272.5 222.26  298.46 198.5  331.5 198.5  Z " stroke-width="1" stroke="#ffffff" fill="none" />
    </g>
  </defs>
  <g transform="matrix(1 0 0 1 -268 -194 )">
    <use xlink:href="#widget26" filter="url(#filter25)" />
    <use xlink:href="#widget26" />
  </g>
</svg>